<svg id="stevnsfort" xmlns="http://www.w3.org/2000/svg" xmlns:xlink="http://www.w3.org/1999/xlink" viewBox="0 0 864 56"><defs><style>.cls-1{fill:#fff;}.cls-2{fill:#39728d;}</style><symbol id="Kalklandet_navn_hvid" data-name="Kalklandet_navn_hvid" viewBox="0 0 671.53 83.75"><path class="cls-1" d="M15.27.17l2,2.34V35.45H21.5L47.22.17H60l2,1.76V8L38.28,42v1.63L63,75.42v6.33l-2.1,2h-13L23.71,53.51H17.24V82l-2,1.75H1.84L0,82V1.93L1.84.17Z"/><path class="cls-1" d="M231.81.17l2,2.34V35.45H238L263.76.17h12.78l2,1.76V8L254.82,42v1.63l24.67,31.77v6.33l-2.09,2h-13L240.25,53.51h-6.47V82l-2,1.75H218.38L216.54,82V1.93L218.38.17Z"/><path class="cls-1" d="M143.37,83.74h-17L122,64.18H91.67L87.23,83.74H70.12v-2.8L89.93.17h33.63l19.81,80.64ZM118.43,49l-7.49-34.5h-8.26L95.09,49Z"/><path class="cls-1" d="M205.43,69V82L203,83.74H154.81L153,82V2.05l2-1.88h14l2,1.76v65.4h32.43Z"/><path class="cls-1" d="M389.59.05H365.38l-19,82.64v.94h10.48l5.39-23.45H392.7l5.39,23.45h10.45V82.57q-9.68-41.14-19-82.52ZM364.38,51l9.41-42.2h7.39L390.59,51Z"/><path class="cls-1" d="M521.53.05H492.66L491.49,1V82.81a6.91,6.91,0,0,0,.93.94H522c18.41,0,22-15.13,22-22.39v-39C544,15.17,540.41.05,521.53.05ZM534.44,61c0,11-7.18,13.16-12,13.16H501.2V9.8h21.15c4.79,0,12.09,2.19,12.09,13.16Z"/><path class="cls-1" d="M474.47.05h-8.39l-.94.82V68.74l-2-6L432.62.05h-12l-.94.93V82.69l.94.94h8.5l.82-.94V15.4l1.76,5.39,30.41,62.72,12.32.12.82-1.06V.87Z"/><path class="cls-1" d="M649,83.63l.94-.94V10.51h20.39l1.18-1.17V.87l-.82-.82H620l-.82.93V9.69l.82.82h19.63V83.63Z"/><path class="cls-1" d="M339.79,73.48H303.21V1a4,4,0,0,1-.59-.93h-9.37l-.82.93V82.69l.82.94h46.54l.82-.94V74.42Z"/><polygon class="cls-1" points="558.36 35.32 558.36 47.05 603.85 47.05 604.67 46.05 604.67 36.21 603.85 35.32 558.36 35.32"/><polygon class="cls-1" points="558.36 72.35 558.36 82.46 559.54 83.63 606.54 83.63 607.36 82.69 607.36 73.41 606.43 72.35 558.36 72.35"/><polygon class="cls-1" points="606.23 0 558.99 0 558.06 0.82 558.06 11.73 567.32 11.73 567.32 11.73 606.12 11.73 607.05 10.79 607.05 0.82 606.23 0"/></symbol><symbol id="New_Symbol_17" data-name="New Symbol 17" viewBox="0 0 111.11 117.28"><polygon class="cls-1" points="1.23 0 109.87 0 111.11 1.24 111.11 9.26 64.81 55.56 64.81 61.73 111.11 108.03 111.11 116.05 109.87 117.28 1.23 117.28 0 116.05 0 1.24 1.23 0"/></symbol></defs><title>Artboard 1</title><rect class="cls-2" width="863.32" height="56"/><use width="671.53" height="83.75" transform="translate(54.66 42.12) scale(0.09)" xlink:href="#Kalklandet_navn_hvid"/><path class="cls-1" d="M59.32,13.7V14l4.74,6v.64l-.14.16h-1.2c-1.74-2-3.2-4-4.84-6h-1.3v5.88l-.14.16H55.12L55,20.66V6.72l.16-.16h1.3l.14.16v6.52h1.1l4.66-6.68h1.18a.83.83,0,0,0,.12.16v.6Z"/><path class="cls-1" d="M70.08,21.1c-3.18,0-4.44-1.84-4.44-3.78V9.94c0-1.78,1.2-3.76,4.46-3.76S74.54,8,74.54,10v7.4C74.54,19.26,73.28,21.1,70.08,21.1ZM72.94,10c0-1.82-1.26-2.32-2.84-2.32-1.78,0-2.9.56-2.9,2.32v7.34c0,1.84,1.9,2.3,2.76,2.3h.28c.82,0,2.7-.38,2.7-2.28Z"/><path class="cls-1" d="M85.1,19.42v1.24l-.14.16H77l-.14-.16V6.72L77,6.56h1.34a.7.7,0,0,0,.1.16V19.26H85Z"/><path class="cls-1" d="M95.7,10.34V17a3.59,3.59,0,0,1-3.76,3.82H87.18s-.14-.14-.16-.16V6.7l.2-.16h4.64A3.61,3.61,0,0,1,95.7,10.34Zm-1.56.06A2,2,0,0,0,92,8.12H88.6V19.26H92A2,2,0,0,0,94.14,17Z"/><path class="cls-1" d="M102.37,13.7V14l4.74,6v.64l-.14.16h-1.2c-1.74-2-3.2-4-4.84-6h-1.3v5.88l-.14.16H98.17L98,20.66V6.72l.16-.16h1.3l.14.16v6.52h1.1l4.66-6.68h1.18a.83.83,0,0,0,.12.16v.6Z"/><path class="cls-1" d="M118.61,20.82h-1.36l-3.56-6.18-1.44,0-.88-.52v6.58l-.18.16H110l-.18-.16V6.7l.14-.14h4.7c3,0,3.68,1.7,3.68,3.58v1.1c0,.82-.34,3.36-2.84,3.36l3.28,5.64v.44Zm-4.18-7.56c1.68,0,2.28-.5,2.28-2v-1c0-1.58-.64-2.06-2.12-2.06h-3.22v5.12Z"/><path class="cls-1" d="M122.92,20.66l-.14.16H121.5l-.16-.16V6.72l.16-.16h1.28l.14.16Z"/><path class="cls-1" d="M132.82,14.36l.8-.94h.82c0,2.06,0,6.5,0,7.24l-.18.18-1.46,0v-.68l-2.73.84c-3.68,0-4.32-1.74-4.32-4.06V10.2c0-1.24.58-3.76,4.36-3.76,3.47,0,4.27,1.18,4.33,3.4l-.17.18H133l-.18-.18C132.74,8.24,132,8,130.13,8c-1.4,0-2.8.26-2.8,2.24v6.68c0,2,.8,2.46,2.8,2.46l2.69-.06Z"/><path class="cls-1" d="M145.75,17.22c0,2.56-1.18,3.86-4.48,3.86s-4.3-1.34-4.36-3.52l.16-.14h1.28l.14.14c.08,1.42,1,1.94,2.76,1.94,2.34,0,2.94-.58,2.94-2.32a2,2,0,0,0-1.22-2c-1.24-.64-2.46-1.2-4-1.94A3.1,3.1,0,0,1,137.15,10c0-2.1,1-3.6,4.14-3.6s4.2.86,4.28,3.4l-.16.16h-1.3L144,9.76c0-1.44-.52-1.84-2.66-1.84s-2.58.74-2.58,1.94a2,2,0,0,0,1.24,2c1,.48,2.58,1.16,3.6,1.64C145,14.24,145.75,15,145.75,17.22Z"/><path class="cls-1" d="M159.27,6.7v14l-.16.16h-1.3l-.14-.14V9.14l-.3.92c-.94,1.94-2.06,4.18-3,6.14H153l-3-6.14-.34-1V20.68l-.16.14H148.3l-.17-.16V6.72l.14-.16h1.84l3.6,7.4,3.56-7.4h1.86Z"/><path class="cls-1" d="M170.75,6.7V17c0,2.68-1.34,4-4.44,4s-4.46-1.32-4.46-4V6.72l.14-.16h1.28l.16.16V17c0,1.84,1.08,2.54,2.88,2.54s2.86-.76,2.86-2.54V6.72l.14-.16h1.28Z"/><path class="cls-1" d="M181.92,17.22c0,2.56-1.18,3.86-4.48,3.86s-4.3-1.34-4.36-3.52l.16-.14h1.28l.14.14c.08,1.42,1,1.94,2.76,1.94,2.34,0,2.94-.58,2.94-2.32a2,2,0,0,0-1.22-2c-1.24-.64-2.46-1.2-4-1.94A3.1,3.1,0,0,1,173.32,10c0-2.1,1-3.6,4.14-3.6s4.2.86,4.28,3.4l-.16.16h-1.3l-.16-.18c0-1.44-.52-1.84-2.66-1.84s-2.58.74-2.58,1.94a2,2,0,0,0,1.24,2c1,.48,2.58,1.16,3.6,1.64C181.2,14.24,181.92,15,181.92,17.22Z"/><path class="cls-1" d="M184.3,20.62V6.7l.16-.14h8.06l.14.14V8l-.16.16h-6.62V12.5h6.18l.14.14v1.28l-.14.16h-6.18v5.18h6.62l.16.18v1.22l-.14.16h-8Z"/><path class="cls-1" d="M204,6.7V17c0,2.68-1.34,4-4.45,4s-4.46-1.32-4.46-4V6.72l.14-.16h1.28l.16.16V17c0,1.84,1.08,2.54,2.88,2.54s2.86-.76,2.86-2.54V6.72l.14-.16h1.29Z"/><path class="cls-1" d="M217.66,6.7v14l-.16.16h-1.3l-.14-.14V9.14l-.3.92c-.94,1.94-2.06,4.18-3,6.14h-1.37l-3-6.14-.34-1V20.68l-.16.14h-1.26l-.18-.16V6.72l.14-.16h1.84l3.6,7.4,3.57-7.4h1.86Z"/><path class="cls-1" d="M61.3,30.18c1.58.72,2.32,1.5,2.32,3.85,0,2.7-1.22,4.06-4.64,4.06s-4.46-1.48-4.52-3.9l.42-.4h1.5l.42.4c.06,1.14.82,1.56,2.16,1.56,1.88,0,2.36-.44,2.36-1.76a1.45,1.45,0,0,0-.94-1.54L56.7,30.63a3.31,3.31,0,0,1-2-3.43c0-2.22,1.06-3.78,4.32-3.78s4.36.94,4.44,3.76l-.4.42H61.46l-.38-.48C61,26,60.72,25.7,59,25.7s-2,.52-2,1.4a1.54,1.54,0,0,0,.92,1.54Z"/><path class="cls-1" d="M68.54,37.83V25.92h-3l-.4-.4V24l.4-.44H74l.38.42v1.48l-.44.46h-3V37.41l-.4.42Z"/><path class="cls-1" d="M76.13,37.37V24l.42-.42h7.9l.38.42v1.5l-.4.42h-6v3.26H84l.4.4v1.52l-.4.4H78.47v4.05h6l.36.46v1.42l-.38.42H76.59Z"/><path class="cls-1" d="M97.62,24v.76L93.9,37.83H90.28C87.6,28.2,87,26.4,86.6,24.88V24l.42-.48h1.66l3.3,12h.2l3.34-12h1.66Z"/><path class="cls-1" d="M108.78,24V37.37l-.32.46H106.3l-4.12-8.27-.5-1.2v9l-.4.42h-1.5l-.42-.42V24l.42-.44h2L106,32l.48,1.34V24l.42-.42h1.52Z"/><path class="cls-1" d="M117.71,30.18c1.58.72,2.32,1.5,2.32,3.85,0,2.7-1.22,4.06-4.64,4.06s-4.46-1.48-4.52-3.9l.42-.4h1.5l.42.4c.06,1.14.82,1.56,2.16,1.56,1.88,0,2.36-.44,2.36-1.76a1.45,1.45,0,0,0-.94-1.54l-3.68-1.82a3.31,3.31,0,0,1-2-3.43c0-2.22,1.06-3.78,4.32-3.78s4.36.94,4.44,3.76l-.4.42h-1.58l-.38-.48c0-1.14-.36-1.42-2.08-1.42s-2,.52-2,1.4a1.54,1.54,0,0,0,.92,1.54Z"/><path class="cls-1" d="M122.19,37.83V24l.42-.42h7.91l.38.42v1.5l-.4.42h-6v3.26h5.54l.4.4v1.52l-.4.4h-5.54v5.93l-.43.42Z"/><path class="cls-1" d="M137.41,38.11c-3.3,0-4.58-2-4.58-4V27.16c0-1.88,1.22-3.94,4.6-3.94,3.22,0,4.6,2,4.6,4v7C142,36.15,140.73,38.11,137.41,38.11Zm2.28-10.91c0-1.36-1-1.76-2.26-1.76-1.42,0-2.3.44-2.3,1.76v6.91c0,1.4,1.5,1.74,2.16,1.74h.26c.64,0,2.14-.26,2.14-1.72Z"/><path class="cls-1" d="M153.08,37.83H151.4L148,32h-1.12l-.38-.39v5.77l-.4.42h-1.58l-.34-.42V24l.4-.42h4.58c3.12,0,3.86,1.82,3.86,3.8v1c0,.78-.24,3.1-2.42,3.51.54,1,1.1,1.9,1.66,2.84l1.18,2v.68ZM149,29.88c1.28,0,1.72-.36,1.72-1.5v-1c0-1.16-.46-1.52-1.56-1.52h-2.62v4Z"/><path class="cls-1" d="M158.56,37.83V25.92h-3l-.4-.4V24l.4-.44H164l.38.42v1.48l-.44.46h-3V37.41l-.41.42Z"/><use width="111.11" height="117.29" transform="translate(6.96 6.11) scale(0.37)" xlink:href="#New_Symbol_17"/></svg>